<svg xmlns="http://www.w3.org/2000/svg" width="131.425" height="112.602" viewBox="0 0 131.425 112.602">
  <g id="bird" transform="translate(-128 -72.555)">
    <g id="paloma" transform="translate(128 72.555)">
      <g id="Grupo_18" data-name="Grupo 18" transform="translate(95.008 23.312)">
        <g id="Grupo_17" data-name="Grupo 17">
          <path id="Trazado_71" data-name="Trazado 71" d="M434.2,106a2.2,2.2,0,1,0,2.2,2.2A2.2,2.2,0,0,0,434.2,106Z" transform="translate(-432 -106)" fill="currentColor"/>
        </g>
      </g>
      <g id="Grupo_20" data-name="Grupo 20" transform="translate(54.102 76.095)">
        <g id="Grupo_19" data-name="Grupo 19">
          <path id="Trazado_72" data-name="Trazado 72" d="M248.2,346a2.2,2.2,0,1,0,2.2,2.2A2.2,2.2,0,0,0,248.2,346Z" transform="translate(-246 -346)" fill="currentColor"/>
        </g>
      </g>
      <g id="Grupo_22" data-name="Grupo 22" transform="translate(62.899 54.102)">
        <g id="Grupo_21" data-name="Grupo 21">
          <path id="Trazado_73" data-name="Trazado 73" d="M310.192,246a2.2,2.2,0,0,0-2.2,2.2A19.816,19.816,0,0,1,288.2,267.993a2.2,2.2,0,1,0,0,4.4A24.219,24.219,0,0,0,312.391,248.2,2.2,2.2,0,0,0,310.192,246Z" transform="translate(-286 -246)" fill="currentColor"/>
        </g>
      </g>
      <g id="Grupo_24" data-name="Grupo 24" transform="translate(0 0)">
        <g id="Grupo_23" data-name="Grupo 23" transform="translate(0)">
          <path id="Trazado_74" data-name="Trazado 74" d="M112.371,33.325l-5.535-11.068a13.923,13.923,0,0,0-12.524-7.741A14.07,14.07,0,0,0,83.168,20.04l-6.212,6.991a12.687,12.687,0,0,0-6.883-4.9L58.96,18.956C50.453,16.525,42.135,9.973,36.139.979A2.2,2.2,0,0,0,32.11,2.2V14.051a54.378,54.378,0,0,0,2.455,16.181c-1.708.424-3.43.78-5.144,1.057a63.73,63.73,0,0,1-10.169.821H2.2A2.2,2.2,0,0,0,.335,35.474L13.5,56.545A32.231,32.231,0,0,0,39.438,71.661L18.285,95.606a6.6,6.6,0,0,0,2.179,10.7L32.11,112.06q.078.038.158.07a6.606,6.606,0,0,0,8.567-3.653L48.962,89.29H65.1c18.6,0,34.309-15.107,34.309-32.989v-13.2a6.605,6.605,0,0,1,6.6-6.6h4.4a2.2,2.2,0,0,0,1.967-3.183ZM36.508,8.753c6.061,7.1,13.559,12.237,21.243,14.433l11.114,3.176a8.277,8.277,0,0,1,5.042,4.1L68.061,37.04l-10.27-6.162A22.219,22.219,0,0,0,42.8,28a24.137,24.137,0,0,0-4,1.023,50,50,0,0,1-2.287-14.971Zm69.5,23.356a11.009,11.009,0,0,0-11,11V56.3c0,15.5-13.7,28.59-29.91,28.59H47.5a16.341,16.341,0,0,0-14.7,9.085l-.464.928a2.2,2.2,0,0,0,3.934,1.967,12.426,12.426,0,0,1,7.685-7.054l-7.184,16.964-.017.042a2.2,2.2,0,0,1-2.792,1.249c-12.38-6.112-11.634-5.753-11.782-5.812a2.2,2.2,0,0,1-.737-3.6c.076-.076,4.669-5.281,23.858-27a32.061,32.061,0,0,0,21.348-9.408,2.2,2.2,0,1,0-3.11-3.11c-9.79,9.79-21.411,7.932-22.7,8.153a27.679,27.679,0,0,1-23.6-13.083l-1.406-2.25,1.588.62c10.069,3.929,22.642,2.529,31.309-3.249a2.2,2.2,0,0,0-2.44-3.66,30.948,30.948,0,0,1-27.27,2.812L11.925,45.72,6.168,36.507H19.251a68.15,68.15,0,0,0,10.873-.877c7.395-1.2,10.5-2.824,13.376-3.29a17.86,17.86,0,0,1,12.03,2.31L72.764,44.991a2.2,2.2,0,1,0,2.263-3.771L71.9,39.343C87.351,21.952,86.525,22.895,86.63,22.756a9.648,9.648,0,0,1,7.682-3.842,9.549,9.549,0,0,1,8.589,5.31l3.944,7.886Z" transform="translate(-0.001 0)" fill="currentColor"/>
        </g>
      </g>
    </g>
    <g id="correo" transform="translate(236.036 103.725) rotate(41)">
      <g id="Grupo_25" data-name="Grupo 25" transform="translate(0 0)">
        <path id="Trazado_75" data-name="Trazado 75" d="M28.266,0H2.724A2.727,2.727,0,0,0,0,2.724V18.508a2.727,2.727,0,0,0,2.724,2.724H28.266a2.727,2.727,0,0,0,2.724-2.724V2.724A2.727,2.727,0,0,0,28.266,0Zm-.355,1.816-.364.3L16.576,11.255a1.689,1.689,0,0,1-2.161,0L3.443,2.119l-.364-.3ZM1.816,3.127l8.939,7.444L1.816,16.52ZM28.266,19.416H2.724a.909.909,0,0,1-.89-.727l10.377-6.906,1.041.867a3.5,3.5,0,0,0,4.485,0l1.041-.867,10.377,6.906A.909.909,0,0,1,28.266,19.416Zm.908-2.9-8.939-5.949,8.939-7.444Z" fill="currentColor"/>
      </g>
    </g>
  </g>
</svg>
