<svg xmlns="http://www.w3.org/2000/svg" viewBox="0 0 71.866 24">
  <g id="Logo" transform="translate(-172.134 -189)">
    <path id="Trazado_26" data-name="Trazado 26" d="M5.722,0,3.278-10.942h-.1a17.848,17.848,0,0,1,.167,2.32V0H1.134V-12.85H4.808L7-2.751h.07l2.18-10.1h3.727V0H10.714V-8.71a20.526,20.526,0,0,1,.123-2.215h-.07L8.332,0ZM19.907,0l-.466-1.336h-.053A3.321,3.321,0,0,1,18.316-.149a2.725,2.725,0,0,1-1.4.325,2.025,2.025,0,0,1-1.7-.809,3.623,3.623,0,0,1-.62-2.25,2.914,2.914,0,0,1,.848-2.3,4.021,4.021,0,0,1,2.536-.831l1.3-.053v-.7q0-1.371-1.187-1.371a4.059,4.059,0,0,0-2.021.686L15.267-9.07a5.822,5.822,0,0,1,3.173-.923,3.043,3.043,0,0,1,2.369.892,3.619,3.619,0,0,1,.813,2.527V0Zm-2.03-1.652A1.175,1.175,0,0,0,18.9-2.228a2.733,2.733,0,0,0,.382-1.534v-.826l-.721.035a1.636,1.636,0,0,0-1.173.457,1.781,1.781,0,0,0-.374,1.23Q17.016-1.652,17.877-1.652ZM25.866,0H23.528V-9.791h2.338ZM23.432-12.349a1.241,1.241,0,0,1,.338-.918,1.277,1.277,0,0,1,.945-.338,1.244,1.244,0,0,1,.914.338,1.232,1.232,0,0,1,.343.918,1.209,1.209,0,0,1-.352.927,1.27,1.27,0,0,1-.905.33,1.307,1.307,0,0,1-.932-.33A1.209,1.209,0,0,1,23.432-12.349ZM30.208,0H27.87V-13.676h2.338ZM35.78.176a3.529,3.529,0,0,1-2.9-1.305,5.725,5.725,0,0,1-1.059-3.7,6.5,6.5,0,0,1,.958-3.788,3.083,3.083,0,0,1,2.672-1.362,3.044,3.044,0,0,1,2.522,1.165A5.137,5.137,0,0,1,38.9-5.546V-4.3H34.2a3.194,3.194,0,0,0,.536,1.947,1.7,1.7,0,0,0,1.406.637,4.557,4.557,0,0,0,2.338-.712V-.5A5.139,5.139,0,0,1,35.78.176Zm-.343-8.35a.954.954,0,0,0-.826.532,3.577,3.577,0,0,0-.378,1.648h2.373a3.545,3.545,0,0,0-.325-1.626A.937.937,0,0,0,35.438-8.174Zm9.185-1.8a2.759,2.759,0,0,1,.844.132l-.272,2.268a1.945,1.945,0,0,0-.642-.088,1.488,1.488,0,0,0-1.31.672,3.476,3.476,0,0,0-.457,1.956V0H40.447V-9.791h1.925l.264,1.529h.079a3.551,3.551,0,0,1,.844-1.318A1.575,1.575,0,0,1,44.622-9.976Z" transform="translate(171 208)" fill="currentColor"/>
    <rect id="Rectángulo_26" data-name="Rectángulo 26" width="24" height="24" rx="4" transform="translate(220 189)" fill="currentColor"/>
    <path id="Trazado_27" data-name="Trazado 27" d="M.123,3.709a4.042,4.042,0,0,1-1.477-.22V1.406a3.68,3.68,0,0,0,1.081.176A1.231,1.231,0,0,0,.8,1.116,2.356,2.356,0,0,0,1.134-.272V-12.85H3.524V-.4A5.241,5.241,0,0,1,3.1,1.8a3.187,3.187,0,0,1-1.2,1.419A3.263,3.263,0,0,1,.123,3.709Z" transform="translate(226 206)" fill="#fff"/>
    <path id="Trazado_28" data-name="Trazado 28" d="M6.987-3.542a3.856,3.856,0,0,1-.91,2.76A3.447,3.447,0,0,1,3.454.176,5.768,5.768,0,0,1,.6-.483V-2.848a4.944,4.944,0,0,0,2.646.94,1.334,1.334,0,0,0,1.033-.378,1.462,1.462,0,0,0,.347-1.028A1.869,1.869,0,0,0,4.21-4.487,6.137,6.137,0,0,0,2.848-5.669,6.068,6.068,0,0,1,1.6-6.763,3.949,3.949,0,0,1,.936-7.937,4.478,4.478,0,0,1,.7-9.448a3.646,3.646,0,0,1,.918-2.619,3.24,3.24,0,0,1,2.465-.967,5.4,5.4,0,0,1,2.839.826l-.791,1.916a7.515,7.515,0,0,0-.883-.439,2.532,2.532,0,0,0-.989-.193,1.085,1.085,0,0,0-.892.382A1.6,1.6,0,0,0,3.059-9.5a1.8,1.8,0,0,0,.374,1.134,5.536,5.536,0,0,0,1.305,1.1A5.426,5.426,0,0,1,6.491-5.546,4,4,0,0,1,6.987-3.542Z" transform="translate(232 208)" fill="#fff"/>
  </g>
</svg>
